HIERARCHY
ROOT Hips
{
    OFFSET 0.000000 0.000000 0.000000
    CHANNELS 6 Xposition Yposition Zposition Zrotation Xrotation Yrotation
    JOINT Spine
    {
        OFFSET -0.000000 0.068295 0.000000
        CHANNELS 3 Zrotation Xrotation Yrotation
        JOINT Spine1
        {
            OFFSET -0.000000 0.198479 0.000000
            CHANNELS 3 Zrotation Xrotation Yrotation
            JOINT Neck
            {
                OFFSET -0.000000 0.215136 0.000000
                CHANNELS 3 Zrotation Xrotation Yrotation
                JOINT Head
                {
                    OFFSET -0.000000 0.090366 0.016657
                    CHANNELS 3 Zrotation Xrotation Yrotation
                    End Site
                    {
                        OFFSET -0.000000 0.166573 0.000000
                    }
                }
            }
            JOINT LeftShoulder
            {
                OFFSET 0.033522 0.175145 -0.001055
                CHANNELS 3 Zrotation Xrotation Yrotation
                JOINT LeftArm
                {
                    OFFSET 0.121214 0.000000 0.000000
                    CHANNELS 3 Zrotation Xrotation Yrotation
                    JOINT LeftForeArm
                    {
                        OFFSET 0.261115 0.000000 0.000000
                        CHANNELS 3 Zrotation Xrotation Yrotation
                        JOINT LeftHand
                        {
                            OFFSET 0.230096 0.000000 0.000000
                            CHANNELS 3 Zrotation Xrotation Yrotation
                            End Site
                            {
                                OFFSET 0.000000 -0.124930 0.000000
                            }
                        }
                    }
                }
            }
            JOINT RightShoulder
            {
                OFFSET -0.033103 0.175145 -0.001055
                CHANNELS 3 Zrotation Xrotation Yrotation
                JOINT RightArm
                {
                    OFFSET -0.121214 0.000000 0.000000
                    CHANNELS 3 Zrotation Xrotation Yrotation
                    JOINT RightForeArm
                    {
                        OFFSET -0.261115 0.000000 0.000000
                        CHANNELS 3 Zrotation Xrotation Yrotation
                        JOINT RightHand
                        {
                            OFFSET -0.230096 0.000000 0.000000
                            CHANNELS 3 Zrotation Xrotation Yrotation
                            End Site
                            {
                                OFFSET -0.000000 -0.124930 0.000000
                            }
                        }
                    }
                }
            }
        }
    }
    JOINT LeftUpLeg
    {
        OFFSET 0.083287 0.000000 0.000000
        CHANNELS 3 Zrotation Xrotation Yrotation
        JOINT LeftLeg
        {
            OFFSET -0.000000 -0.281128 0.000000
            CHANNELS 3 Zrotation Xrotation Yrotation
            JOINT LeftFoot
            {
                OFFSET -0.000000 -0.491911 0.000000
                CHANNELS 3 Zrotation Xrotation Yrotation
                JOINT LeftToeBase
                {
                    OFFSET -0.000000 -0.054136 0.124930
                    CHANNELS 3 Zrotation Xrotation Yrotation
                    End Site
                    {
                        OFFSET -0.000000 0.000000 0.033315
                    }
                }
            }
        }
    }
    JOINT RightUpLeg
    {
        OFFSET -0.083287 0.000000 0.000000
        CHANNELS 3 Zrotation Xrotation Yrotation
        JOINT RightLeg
        {
            OFFSET -0.000000 -0.281128 0.000000
            CHANNELS 3 Zrotation Xrotation Yrotation
            JOINT RightFoot
            {
                OFFSET -0.000000 -0.491911 0.000000
                CHANNELS 3 Zrotation Xrotation Yrotation
                JOINT RightToeBase
                {
                    OFFSET -0.000000 -0.054136 0.124930
                    CHANNELS 3 Zrotation Xrotation Yrotation
                    End Site
                    {
                        OFFSET -0.000000 0.000000 0.033315
                    }
                }
            }
        }
    }
}
MOTION
Frames:    9
Frame Time:    0.010000
0.015711    0.817571    0.041516    -3.201448    0.366743    -103.673058    1.658849    -2.618661    4.206696    -2.416989    2.113169    1.434198    -0.221818    -1.120797    -1.130860    -9.307130    2.758030    0.227538    15.701632    0.600823    -0.665980    -18.715160    0.722940    -2.823011    0.375451    6.697730    -1.738707    95.301598    -1.297965    -6.643291    -15.179452    -5.558366    3.228023    20.952282    9.730288    2.329455    -1.469082    -2.288136    -6.795189    -96.980492    -3.463930    -2.586630    -5.535553    16.130116    6.566484    0.831799    -2.816395    2.723758    4.891053    -5.047903    53.996372    0.000000    0.000000    0.000000    1.791977    11.588991    -0.443265    -0.591016    1.941815    -2.762301    -4.028593    -15.119205    -35.462067    0.000000    0.000000    0.000000    
0.015710    0.817566    0.041531    -3.209841    0.362945    -103.664589    1.654483    -2.617180    4.202362    -2.414903    2.102427    1.432554    -0.216544    -1.104780    -1.112748    -9.313429    2.756756    0.247763    15.691319    0.621813    -0.647930    -18.711241    0.699750    -2.850936    0.383952    6.675687    -1.773442    95.230125    -1.296075    -6.622402    -15.170382    -5.534362    3.228121    20.945608    9.730725    2.344621    -1.457602    -2.267574    -6.815822    -96.947166    -3.664531    -2.576843    -5.537048    16.139458    6.554645    0.825980    -2.822650    2.734669    4.893572    -5.052810    53.997105    0.000000    0.000000    0.000000    1.779051    11.603045    -0.432216    -0.578779    1.932237    -2.753801    -4.032988    -15.129900    -35.469574    0.000000    0.000000    0.000000    
0.015768    0.817561    0.041562    -3.206034    0.365722    -103.669685    1.666449    -2.616054    4.206427    -2.418622    2.085941    1.433511    -0.235174    -1.112309    -1.071804    -9.268976    2.780387    0.282908    15.700800    0.597845    -0.654207    -18.731934    0.722956    -2.832396    0.379943    6.674249    -1.765969    95.282372    -1.274492    -6.621278    -15.167788    -5.547487    3.233645    20.940849    9.698002    2.330509    -1.435447    -2.239069    -6.806191    -96.307266    -3.917989    -2.540316    -5.525727    16.140999    6.549465    0.810887    -2.833110    2.712012    4.914099    -5.022886    54.034054    0.000000    0.000000    0.000000    1.783417    11.578856    -0.426187    -0.583819    1.956100    -2.779136    -4.025539    -15.129164    -35.451942    0.000000    0.000000    0.000000    
0.015773    0.817572    0.041577    -3.221601    0.367177    -103.669334    1.666080    -2.609910    4.210186    -2.414966    2.090265    1.434815    -0.231017    -1.119750    -1.057581    -9.255476    2.789711    0.296818    15.684536    0.572778    -0.650874    -18.720274    0.756755    -2.823369    0.376091    6.670473    -1.778891    95.296013    -1.246777    -6.618619    -15.170503    -5.554256    3.221115    20.956680    9.765896    2.350472    -1.450754    -2.261935    -6.848604    -96.490097    -3.860256    -2.567612    -5.534729    16.148237    6.562646    0.817972    -2.824963    2.732044    4.899508    -5.030509    54.008167    0.000000    0.000000    0.000000    1.788962    11.598248    -0.441046    -0.599450    1.948543    -2.756115    -4.010615    -15.159802    -35.431553    0.000000    0.000000    0.000000    
0.015810    0.817565    0.041615    -3.219115    0.363254    -103.669998    1.667584    -2.618811    4.212304    -2.417163    2.085675    1.435438    -0.214768    -1.107066    -1.045430    -9.273698    2.776074    0.312986    15.686210    0.565686    -0.658916    -18.734272    0.773477    -2.811358    0.386970    6.663092    -1.777316    95.302200    -1.240607    -6.611616    -15.165100    -5.519728    3.220290    20.939905    9.686385    2.359826    -1.422781    -2.234658    -6.828440    -96.492332    -3.856327    -2.538278    -5.539899    16.143007    6.561828    0.818216    -2.825546    2.718337    4.907493    -5.030464    54.017250    0.000000    0.000000    0.000000    1.783314    11.581294    -0.435444    -0.596658    1.965126    -2.771753    -4.028693    -15.120594    -35.455227    0.000000    0.000000    0.000000    
0.015845    0.817591    0.041645    -3.229328    0.366962    -103.669975    1.676713    -2.617832    4.214910    -2.424021    2.089700    1.436442    -0.205741    -1.107774    -1.025705    -9.270851    2.780562    0.334465    15.681580    0.555213    -0.667156    -18.726315    0.774924    -2.794074    0.373021    6.656619    -1.784994    95.291718    -1.265052    -6.603937    -15.173089    -5.536018    3.217748    20.958492    9.680514    2.357990    -1.408387    -2.124261    -6.824697    -96.621902    -4.161293    -2.448999    -5.539026    16.151869    6.557764    0.816440    -2.828084    2.720578    4.906506    -5.047479    54.011745    0.000000    0.000000    0.000000    1.778027    11.591020    -0.433408    -0.590181    1.962584    -2.774904    -4.024252    -15.129326    -35.446175    0.000000    0.000000    0.000000    
0.015868    0.817581    0.041671    -3.234515    0.365803    -103.665199    1.679274    -2.619720    4.214274    -2.425933    2.086569    1.436188    -0.206528    -1.122169    -0.997591    -9.238379    2.798765    0.359846    15.675760    0.569222    -0.668579    -18.722651    0.754626    -2.796635    0.362726    6.647136    -1.787773    95.314117    -1.275885    -6.593552    -15.175933    -5.548097    3.214423    20.970917    9.669356    2.359715    -1.408143    -2.272603    -6.827137    -96.196663    -3.844689    -2.564703    -5.539303    16.146730    6.570706    0.813746    -2.810685    2.699888    4.913173    -5.027131    54.004257    0.000000    0.000000    0.000000    1.780957    11.589405    -0.450582    -0.598449    1.968993    -2.766972    -4.021952    -15.127536    -35.448277    0.000000    0.000000    0.000000    
0.015922    0.817580    0.041708    -3.236911    0.362717    -103.668991    1.683147    -2.625958    4.222768    -2.427039    2.091465    1.439069    -0.204492    -1.131535    -0.973877    -9.229794    2.810483    0.384268    15.667092    0.567756    -0.683581    -18.715410    0.744240    -2.780351    0.348993    6.626917    -1.791719    95.322395    -1.322260    -6.570869    -15.176500    -5.543459    3.211911    20.966648    9.651268    2.351463    -1.472715    -2.326219    -6.724370    -97.198952    -3.168052    -2.611972    -5.546750    16.143944    6.556717    0.815728    -2.816157    2.724283    4.921147    -5.016565    54.027214    0.000000    0.000000    0.000000    1.767740    11.580132    -0.418588    -0.587673    1.980065    -2.794323    -4.024326    -15.120009    -35.444717    0.000000    0.000000    0.000000    
0.015932    0.817587    0.041722    -3.244727    0.365865    -103.670166    1.685228    -2.635220    4.225936    -2.419810    2.107763    1.440229    -0.215283    -1.148772    -0.943273    -9.200100    2.820942    0.410812    15.659031    0.563570    -0.684688    -18.706726    0.731669    -2.765488    0.316603    6.664363    -1.776573    95.390930    -1.289189    -6.608547    -15.183138    -5.550640    3.210851    20.981503    9.671256    2.353259    -1.414713    -2.153443    -6.779300    -96.580338    -4.158993    -2.476346    -5.557900    16.145025    6.586927    0.831325    -2.810308    2.736070    4.907750    -5.017760    53.998055    0.000000    0.000000    0.000000    1.774444    11.585684    -0.448039    -0.600414    1.982328    -2.763152    -4.016607    -15.148522    -35.425110    0.000000    0.000000    0.000000    
